<svg id="acquisition" xmlns="http://www.w3.org/2000/svg" width="90.785" height="87.19" viewBox="0 0 90.785 87.19">
  <path id="Path_511" data-name="Path 511" d="M79.378,1,59.69,12.25H57.449L48.8,9.779a8.788,8.788,0,0,0-2.088-.3L40.351,7.445a17.349,17.349,0,0,0-9.012-.409L22.024,9.107,9.864,1H1V21.672l16.268,5.916,4.84,2.9a4.378,4.378,0,0,0,4.222,4.243,4.378,4.378,0,0,0,4.219,4.219A4.373,4.373,0,0,0,33.717,43a23.908,23.908,0,1,0,20.22-.716,4.21,4.21,0,0,0,.5-1.913,4.277,4.277,0,0,0,4.219-4.223,4.327,4.327,0,0,0,4.225-4.316,4.134,4.134,0,0,0-.051-.474l6.254-3.752,19.11-5.878V1ZM3.813,19.7V3.813h5.2L20.47,11.452,16.919,24.47ZM24.907,30.362a1.57,1.57,0,0,1,.461-1.115l3.879-3.879a1.577,1.577,0,0,1,2.23,2.23L27.6,31.477a1.577,1.577,0,0,1-2.692-1.115Zm4.219,4.219a1.57,1.57,0,0,1,.461-1.115l3.879-3.879a1.577,1.577,0,0,1,2.23,2.23L31.817,35.7a1.577,1.577,0,0,1-2.692-1.115Zm4.68,3.1,3.879-3.879a1.577,1.577,0,0,1,2.23,2.23l-3.879,3.879a1.577,1.577,0,0,1-2.23-2.23Zm9.213-.121a1.577,1.577,0,0,1,1.115,2.692l-3.879,3.879a1.577,1.577,0,0,1-2.23-2.23L41.9,38.025A1.57,1.57,0,0,1,43.019,37.564Zm2.814,4.971,1.048.873A1.467,1.467,0,0,1,45.941,46h-.26a1.469,1.469,0,0,1-.97-.367l-1.052-.928ZM44.6,48.814A15.469,15.469,0,1,1,29.126,64.283,15.487,15.487,0,0,1,44.6,48.814ZM65.689,64.283A21.094,21.094,0,1,1,35.4,45.293a4.384,4.384,0,0,0,2.614,1.952A18.275,18.275,0,1,0,49.6,46.716a4.231,4.231,0,0,0,.612-2.126A4.214,4.214,0,0,0,51.5,44.36,20.954,20.954,0,0,1,65.689,64.283ZM58.551,33.345h-.243a1.509,1.509,0,0,1-.968-.35l-.222-.186-7.4-6.169-1.8,2.16,7.4,6.169a1.468,1.468,0,0,1-.939,2.595h-.305a1.468,1.468,0,0,1-.939-.34l-.235-.2-7.4-6.169-1.8,2.16,7.4,6.169a1.468,1.468,0,0,1-.939,2.595,2.312,2.312,0,0,1-1.479-.536L47.3,40.093a4.474,4.474,0,0,0,.111-.953,4.385,4.385,0,0,0-4.234-4.374,4.378,4.378,0,0,0-4.219-4.219,4.378,4.378,0,0,0-4.219-4.219,4.38,4.38,0,0,0-7.477-2.949L23.38,27.258a4.272,4.272,0,0,0-.4.481l-3.472-2.083L23.318,11.7l8.63-1.918a14.54,14.54,0,0,1,7.545.343l2.07.662L34.541,14.3a4.684,4.684,0,0,0-2.6,4.213v.28a4.709,4.709,0,0,0,7.134,4.037l5.236-3.142a2.907,2.907,0,0,1,3.372.325L59.564,30.706a1.514,1.514,0,0,1-1.013,2.638Zm2.894-4.727L49.562,17.923a5.777,5.777,0,0,0-6.7-.647l-5.236,3.142a1.9,1.9,0,0,1-2.873-1.627v-.28a1.887,1.887,0,0,1,1.049-1.7l7.846-3.922a6.139,6.139,0,0,1,4.383-.408l8.837,2.524,2.439.041,7.21,10.816-4.9,2.939c-.06-.058-.107-.129-.17-.186Zm23.932-8.969L69.09,24.661l-7.02-10.53L80.126,3.813h5.251Z" transform="translate(2.595 -1)" fill="#bcbcbc"/>
  <path id="Path_512" data-name="Path 512" d="M32.625,59.5v2.813h2.813V59.5a5.625,5.625,0,1,0,0-11.25H32.625a2.813,2.813,0,1,1,0-5.625h2.813a2.815,2.815,0,0,1,2.813,2.813h2.813a5.631,5.631,0,0,0-5.625-5.625V37H32.625v2.813a5.625,5.625,0,1,0,0,11.25h2.813a2.813,2.813,0,1,1,0,5.625H32.625a2.815,2.815,0,0,1-2.813-2.813V52.469H27v1.406A5.632,5.632,0,0,0,32.625,59.5Z" transform="translate(13.159 13.626)" fill="#bcbcbc"/>
  <path id="Path_513" data-name="Path 513" d="M48.2,41.084l2.25,1.688L56.356,34.9V64.428h2.813V34.9l5.906,7.875,2.25-1.688L57.763,28.333Z" transform="translate(21.772 10.105)" fill="#bcbcbc"/>
  <path id="Path_514" data-name="Path 514" d="M54,56h2.813v2.813H54Z" transform="translate(24.129 21.346)" fill="#bcbcbc"/>
  <path id="Path_515" data-name="Path 515" d="M21.326,51.677,11.763,64.428,2.2,51.677,4.45,49.99l5.906,7.875V28.333h2.813V57.865l5.906-7.875Z" transform="translate(-2.2 10.105)" fill="#bcbcbc"/>
  <path id="Path_516" data-name="Path 516" d="M8,56h2.813v2.813H8Z" transform="translate(0.156 21.346)" fill="#bcbcbc"/>
</svg>
