<svg xmlns="http://www.w3.org/2000/svg" width="87.211" height="87.19" viewBox="0 0 87.211 87.19">
  <g id="admin" transform="translate(0)">
    <g id="Group_1502" data-name="Group 1502" transform="translate(43.044 74.09)">
      <g id="Group_1501" data-name="Group 1501">
        <rect id="Rectangle_216" data-name="Rectangle 216" width="2.552" height="12.93" fill="#169bd6"/>
      </g>
    </g>
    <g id="Group_1504" data-name="Group 1504" transform="translate(75.237 74.09)">
      <g id="Group_1503" data-name="Group 1503">
        <rect id="Rectangle_217" data-name="Rectangle 217" width="2.552" height="12.93" fill="#169bd6"/>
      </g>
    </g>
    <g id="Group_1506" data-name="Group 1506" transform="translate(0 0)">
      <g id="Group_1505" data-name="Group 1505">
        <path id="Path_495" data-name="Path 495" d="M70.946,54.884a14.962,14.962,0,0,0,4.095-10.294V.062H0V50.675a6.387,6.387,0,0,0,6.38,6.38H20.021l.675,1.419L19.611,61.09l-4.874,1.733V69.66l4.874,1.733L20.7,74.01l-2.222,4.671,4.835,4.835,4.671-2.222L30.6,82.378l1.733,4.874H34.9v-.17h1.276V79.531a24.319,24.319,0,0,1,15.363-22.56,14.984,14.984,0,0,0,17.254-.2A24.226,24.226,0,0,1,84.659,79.531v7.551h2.552V79.531A26.777,26.777,0,0,0,70.946,54.884Zm1.543-23.545H45.709A2.64,2.64,0,0,1,43.072,28.7V23.88H68.661a3.832,3.832,0,0,1,3.827,3.827v3.632ZM2.552,2.614H72.489v8.762H2.552ZM18.474,53.8l.333.7H6.38a3.832,3.832,0,0,1-3.828-3.828V13.927H72.488v8.68a6.346,6.346,0,0,0-3.827-1.279H40.52V28.7a5.2,5.2,0,0,0,4.486,5.14V44.589A14.938,14.938,0,0,0,46.016,50l-2.5,1.189L40.9,50.1l-1.733-4.874H32.33L30.6,50.1,27.98,51.189l-4.671-2.222ZM35.366,70.05a3.828,3.828,0,1,1,3.356-6.219A26.97,26.97,0,0,0,35.366,70.05Zm4.97-8.241a6.379,6.379,0,1,0-5.771,10.7Q34.23,73.735,34.011,75A8.93,8.93,0,0,1,35.748,57.31a8.848,8.848,0,0,1,6.359,2.669Q41.177,60.853,40.336,61.809Zm3.717-3.492a11.379,11.379,0,0,0-8.305-3.559A11.481,11.481,0,0,0,33.7,77.536q-.074.991-.075,2v3.737l-1-2.813L27.909,78.5l-4.07,1.936L21.552,78.15l1.936-4.07-1.954-4.712-4.245-1.509V64.624l4.245-1.509L23.488,58.4l-1.936-4.07,2.287-2.287,4.07,1.936,4.712-1.954,1.509-4.245h3.235l1.509,4.245,4.712,1.954,3.551-1.689a15.13,15.13,0,0,0,2.2,2.836A26.64,26.64,0,0,0,44.053,58.317Zm15.97-1.262A12.479,12.479,0,0,1,47.558,44.589v-10.7h24.93v10.7A12.479,12.479,0,0,1,60.023,57.055Z" transform="translate(0 -0.062)" fill="#169bd6"/>
      </g>
    </g>
    <g id="Group_1508" data-name="Group 1508" transform="translate(52.957 40.896)">
      <g id="Group_1507" data-name="Group 1507">
        <rect id="Rectangle_218" data-name="Rectangle 218" width="2.945" height="2.552" fill="#169bd6"/>
      </g>
    </g>
    <g id="Group_1510" data-name="Group 1510" transform="translate(64.931 40.896)">
      <g id="Group_1509" data-name="Group 1509">
        <rect id="Rectangle_219" data-name="Rectangle 219" width="2.945" height="2.552" fill="#169bd6"/>
      </g>
    </g>
    <g id="Group_1512" data-name="Group 1512" transform="translate(42.74 5.656)">
      <g id="Group_1511" data-name="Group 1511">
        <rect id="Rectangle_220" data-name="Rectangle 220" width="2.552" height="2.552" fill="#169bd6"/>
      </g>
    </g>
    <g id="Group_1514" data-name="Group 1514" transform="translate(32.533 5.656)">
      <g id="Group_1513" data-name="Group 1513">
        <rect id="Rectangle_221" data-name="Rectangle 221" width="2.552" height="2.552" fill="#169bd6"/>
      </g>
    </g>
    <g id="Group_1516" data-name="Group 1516" transform="translate(37.636 5.656)">
      <g id="Group_1515" data-name="Group 1515">
        <rect id="Rectangle_222" data-name="Rectangle 222" width="2.552" height="2.552" fill="#169bd6"/>
      </g>
    </g>
    <g id="Group_1522" data-name="Group 1522" transform="translate(14.396 20.33)">
      <g id="Group_1521" data-name="Group 1521">
        <rect id="Rectangle_224" data-name="Rectangle 224" width="23.818" height="2.552" fill="#169bd6"/>
      </g>
    </g>
  </g>
</svg>
