<svg id="Analysis_Report" data-name="Analysis Report" xmlns="http://www.w3.org/2000/svg" width="87.147" height="87.19" viewBox="0 0 87.147 87.19">
  <path id="Path_497" data-name="Path 497" d="M83.377,33.97a1.453,1.453,0,0,0-1.453-1.453H57.22V9.266a1.453,1.453,0,0,0-1.453-1.453,27.014,27.014,0,0,0-4.36.378V3.453A1.453,1.453,0,0,0,49.955,2H15.079a1.5,1.5,0,0,0-1.032.421L2.421,14.047A1.5,1.5,0,0,0,2,15.079V87.737A1.453,1.453,0,0,0,3.453,89.19h46.5a1.453,1.453,0,0,0,1.453-1.453V62.655a27.013,27.013,0,0,0,4.36.378,27.635,27.635,0,0,0,27.61-27.61c0-.392-.015-.785-.029-1.177a1.61,1.61,0,0,0,.029-.276ZM54.314,10.763V33.374L36.644,51.044A24.691,24.691,0,0,1,54.314,10.763ZM13.625,6.955v6.67H6.955ZM48.5,86.284H4.906V16.532H15.079a1.453,1.453,0,0,0,1.453-1.453V4.906H48.5V8.815a27.571,27.571,0,0,0,0,53.215Zm7.266-26.157a24.6,24.6,0,0,1-17.148-6.961L56.363,35.423H80.471A24.739,24.739,0,0,1,55.767,60.127Z" transform="translate(-2 -2)" fill="#bcbcbc"/>
  <path id="Path_498" data-name="Path 498" d="M43.453,29.61H69.61V29.6a1.443,1.443,0,0,0,1.408-1.523A27.585,27.585,0,0,0,43.453,2,1.453,1.453,0,0,0,42,3.453v24.7A1.453,1.453,0,0,0,43.453,29.61ZM67.986,26.7H44.906V4.948A24.681,24.681,0,0,1,67.986,26.7Z" transform="translate(16.127 -2)" fill="#bcbcbc"/>
  <path id="Path_499" data-name="Path 499" d="M23.079,40A13.079,13.079,0,1,0,36.157,53.079,13.079,13.079,0,0,0,23.079,40Zm0,23.251A10.172,10.172,0,1,1,33.251,53.079,10.172,10.172,0,0,1,23.079,63.251Z" transform="translate(1.625 15.22)" fill="#bcbcbc"/>
  <path id="Path_500" data-name="Path 500" d="M24.719,54.625a4.374,4.374,0,0,1-2.906,4.1v1.715H18.906V58.723A4.374,4.374,0,0,1,16,54.625h2.906a1.453,1.453,0,1,0,1.453-1.453,4.359,4.359,0,0,1-1.453-8.457V43h2.906v1.715a4.374,4.374,0,0,1,2.906,4.1H21.813a1.453,1.453,0,1,0-1.453,1.453,4.373,4.373,0,0,1,4.36,4.36Z" transform="translate(4.344 16.58)" fill="#bcbcbc"/>
  <path id="Path_503" data-name="Path 503" d="M8,28H22.532v2.906H8Z" transform="translate(0.719 -0.784)" fill="#bcbcbc"/>
  <path id="Path_504" data-name="Path 504" d="M8,34H22.532v2.906H8Z" transform="translate(0.719 1.935)" fill="#bcbcbc"/>
  <path id="Path_505" data-name="Path 505" d="M40,48h5.813v2.906H40Z" transform="translate(17.799 19.902)" fill="#bcbcbc"/>
  <path id="Path_506" data-name="Path 506" d="M46,48H66.672v2.906H46Z" transform="translate(9.936 19.902)" fill="#bcbcbc"/>
  <path id="Path_509" data-name="Path 509" d="M40,60h5.813v2.906H40Z" transform="translate(17.799 14.774)" fill="#bcbcbc"/>
  <path id="Path_510" data-name="Path 510" d="M46,60H66.672v2.906H46Z" transform="translate(9.936 14.774)" fill="#bcbcbc"/>
</svg>
