<svg xmlns="http://www.w3.org/2000/svg" width="31.462" height="35.796" viewBox="0 0 31.462 35.796">
  <g id="user_2_" data-name="user (2)" transform="translate(0 0)">
    <g id="Group_1525" data-name="Group 1525" transform="translate(6.292 0)">
      <g id="Group_1524" data-name="Group 1524">
        <path id="Path_517" data-name="Path 517" d="M130.438,0a9.438,9.438,0,1,0,9.438,9.438A9.449,9.449,0,0,0,130.438,0Z" transform="translate(-121)" fill="#d8d8d8"/>
      </g>
    </g>
    <g id="Group_1527" data-name="Group 1527" transform="translate(0 20.975)">
      <g id="Group_1526" data-name="Group 1526">
        <path id="Path_518" data-name="Path 518" d="M58.474,304.069A13.455,13.455,0,0,0,48.828,300H44.633a13.455,13.455,0,0,0-9.646,4.069,13.755,13.755,0,0,0-3.987,9.7,1.049,1.049,0,0,0,1.049,1.049H61.413a1.049,1.049,0,0,0,1.049-1.049A13.755,13.755,0,0,0,58.474,304.069Z" transform="translate(-31 -300)" fill="#d8d8d8"/>
      </g>
    </g>
  </g>
</svg>
